<svg width="209" height="37" viewBox="0 0 209 37" fill="none" xmlns="http://www.w3.org/2000/svg">
<g clip-path="url(#clip0)">
<path d="M24.55 17.35H34.8V32.15C30.55 35.05 24.7 36.6 19.55 36.6C8.25 36.6 0 29.05 0 18.3C0 7.55 8.25 0 19.8 0C26.7 0 32.25 2.4 35.8 6.75L28.25 13.4C26.05 10.85 23.5 9.55 20.4 9.55C15.2 9.55 11.9 12.9 11.9 18.3C11.9 23.55 15.2 27.05 20.25 27.05C21.7 27.05 23.1 26.8 24.55 26.2V17.35Z" fill="#2C5282"/>
<path d="M71.4999 13.5C71.4999 21.3 65.6499 26.15 56.2999 26.15H49.2499V35.8H41.1499V0.800049H56.2999C65.6499 0.800049 71.4999 5.65005 71.4999 13.5ZM63.2999 13.5C63.2999 9.65005 60.7999 7.40005 55.8499 7.40005H49.2499V19.55H55.8499C60.7999 19.55 63.2999 17.3 63.2999 13.5Z" fill="#2C5282"/>
<path d="M107.05 20.85V0.800049H110.75V20.7001C110.75 29 114.65 32.8 121.45 32.8C128.3 32.8 132.2 29 132.2 20.7001V0.800049H135.8V20.85C135.8 30.9001 130.4 36.1 121.45 36.1C112.5 36.1 107.05 30.9001 107.05 20.85Z" fill="#2B6CB0"/>
<path d="M140.6 31.55L142.05 28.7C144.55 31.15 149 32.95 153.6 32.95C160.15 32.95 163 30.2 163 26.75C163 17.15 141.45 23.05 141.45 10.1C141.45 4.95 145.45 0.5 154.35 0.5C158.3 0.5 162.4 1.65 165.2 3.6L163.95 6.55C160.95 4.6 157.45 3.65 154.35 3.65C147.95 3.65 145.1 6.5 145.1 10C145.1 19.6 166.65 13.8 166.65 26.55C166.65 31.7 162.55 36.1 153.6 36.1C148.35 36.1 143.2 34.25 140.6 31.55Z" fill="#2B6CB0"/>
<path d="M81.4001 10.2C81.4001 7.15002 83.9501 4.65002 89.9001 4.65002C92.5101 4.65002 95.3601 5.30002 98.0201 6.66002L100.92 3.36002C98.0201 1.45002 93.9001 0.400024 89.9001 0.400024C80.7001 0.400024 76.5001 5.00002 76.5001 10.4C76.5001 23.4 97.7001 18 97.7001 26.55C97.7001 29.6 95.1001 31.95 89.0501 31.95C85.1301 31.95 81.2401 30.66 78.5901 28.77L75.8101 31.94C78.6401 34.47 83.8001 36.21 89.0601 36.21C98.3101 36.21 102.61 31.61 102.61 26.26C102.6 13.4 81.4001 18.75 81.4001 10.2Z" fill="#2C5282"/>
<path d="M81.4001 10.2C81.4001 7.15002 83.9501 4.65002 89.9001 4.65002C92.5101 4.65002 95.3601 5.30002 98.0201 6.66002L100.92 3.36002C98.0201 1.45002 93.9001 0.400024 89.9001 0.400024C80.7001 0.400024 76.5001 5.00002 76.5001 10.4C76.5001 23.4 97.7001 18 97.7001 26.55C97.7001 29.6 95.1001 31.95 89.0501 31.95C85.1301 31.95 81.2401 30.66 78.5901 28.77L75.8101 31.94C78.6401 34.47 83.8001 36.21 89.0601 36.21C98.3101 36.21 102.61 31.61 102.61 26.26C102.6 13.4 81.4001 18.75 81.4001 10.2Z" fill="#2C5282"/>
<path d="M89.7498 16.0599L86.3398 19.9399C91.8798 21.4099 97.6998 22.0699 97.6998 26.5499C97.6998 29.5999 95.0998 31.9499 89.0498 31.9499C85.1298 31.9499 81.2398 30.6599 78.5898 28.7699L76.6898 30.9299L75.7998 31.9399C78.6298 34.4699 83.7898 36.2099 89.0498 36.2099C98.2998 36.2099 102.6 31.6099 102.6 26.2599C102.6 18.9099 95.6798 17.5099 89.7498 16.0599Z" fill="#2B6CB0"/>
<path d="M98.02 6.65999L100.92 3.35999L98.02 6.65999Z" fill="#2B6CB0"/>
<path d="M208.81 31.9701C208.81 34.5001 206.76 36.5501 204.23 36.5501H177.4C174.87 36.5501 172.82 34.5001 172.82 31.9701V5.14006C172.82 2.61006 174.87 0.560059 177.4 0.560059H204.23C206.76 0.560059 208.81 2.61006 208.81 5.14006V31.9701Z" fill="#2B6CB0"/>
<path d="M187.81 25.7498L190.81 30.7498L198.363 36.5508H204.81C204.81 36.5508 208.81 36.7498 208.81 31.2498C208.81 26.2498 208.81 17.6298 208.81 17.6298L197.508 8.97656L195.31 20.2498L192.31 22.2498L187.81 25.7498Z" fill="#2C5282"/>
<path d="M190.81 6.33997C185.39 6.33997 180.99 10.74 180.99 16.16C180.99 21.58 190.81 30.76 190.81 30.76C190.81 30.76 200.63 21.58 200.63 16.16C200.64 10.74 196.24 6.33997 190.81 6.33997ZM190.81 19.91C188.69 19.91 186.97 18.19 186.97 16.07C186.97 13.95 188.69 12.23 190.81 12.23C192.93 12.23 194.65 13.95 194.65 16.07C194.66 18.19 192.94 19.91 190.81 19.91Z" fill="#F6F9FA"/>
<path d="M190.81 20.5799C188.32 20.5799 186.3 18.5599 186.3 16.0699C186.3 13.5799 188.32 11.5599 190.81 11.5599C193.3 11.5599 195.32 13.5799 195.32 16.0699C195.32 18.5499 193.3 20.5799 190.81 20.5799ZM190.81 12.8899C189.06 12.8899 187.63 14.3199 187.63 16.0699C187.63 17.8199 189.06 19.2499 190.81 19.2499C192.56 19.2499 193.99 17.8199 193.99 16.0699C194 14.3099 192.57 12.8899 190.81 12.8899Z" fill="#E3E5E6"/>
</g>
<defs>
<clipPath id="clip0">
<rect width="208.81" height="36.6" fill="white"/>
</clipPath>
</defs>
</svg>
